<svg width="799" height="168" viewBox="0 0 799 168" fill="none" xmlns="http://www.w3.org/2000/svg">
<path d="M127.4 0.599997C129.533 4.59999 134.2 11.2667 141.4 20.6C148.733 29.9333 152.4 38.7333 152.4 47C152.267 48.2 152.2 49.1333 152.2 49.8V51.6L163.4 57.8C172.6 70.6 182.267 85.1333 192.4 101.4C202.533 117.667 212.333 133.4 221.8 148.6C221.8 149.4 221.933 150.867 222.2 153C222.467 155.133 222.6 156.733 222.6 157.8C222.6 159.933 222.267 161.667 221.6 163C220.933 164.2 219.733 165.067 218 165.6C206.933 165.6 193.133 165.667 176.6 165.8C160.2 165.933 144.6 166.067 129.8 166.2C115 166.2 100.267 166.267 85.6 166.4C83.7333 164.4 79.3333 160.733 72.4 155.4C65.4667 149.933 62 144.333 62 138.6C52.5333 135.933 42.6667 129.8 32.4 120.2C22.2667 110.6 12.6 101.4 3.4 92.6L0.2 86L0.800001 7.2C0.800001 5.33333 1.53333 3.99999 3 3.19999C4.46667 2.39999 6.46667 1.86666 9 1.6C26.8667 1.6 49.7333 1.46666 77.6 1.19999C105.6 0.799994 122.2 0.599997 127.4 0.599997ZM7.2 3.99999C4.26667 5.59999 3.2 7.59999 4 9.99999L48.6 86L54 89.2H123L128.6 91C129.133 92.0667 130.867 94.7333 133.8 99C136.867 103.133 138.4 106.4 138.4 108.8C138.4 110.4 137.733 112.067 136.4 113.8C129.067 113.8 117.533 114.267 101.8 115.2C86.2 116 75.5333 116.4 69.8 116.4C71.6667 121.467 74.4667 127 78.2 133C82.0667 138.867 85.8 144.467 89.4 149.8H214.8C215.2 149.4 215.733 148.867 216.4 148.2C217.067 147.533 217.4 146.667 217.4 145.6L162.4 60L156.4 56.8L85 56.2C81.6667 53.9333 78.8 51.1333 76.4 47.8C74 44.3333 73.0667 40.8 73.6 37.2C83.8667 36 94.8667 35.2 106.6 34.8C118.333 34.2667 131.2 34 145.2 34C142.933 29.2 140.4 24.5333 137.6 20C134.8 15.3333 131.2 9.86666 126.8 3.59999C113.333 3.59999 99.8667 3.66666 86.4 3.79999C73.0667 3.79999 59.8 3.86666 46.6 3.99999C33.4 3.99999 20.2667 3.99999 7.2 3.99999ZM320.369 0.599997C322.502 4.59999 327.169 11.2667 334.369 20.6C341.702 29.9333 345.369 38.7333 345.369 47C345.235 48.2 345.169 49.1333 345.169 49.8V51.6L356.369 57.8C365.569 70.6 375.235 85.1333 385.369 101.4C395.502 117.667 405.302 133.4 414.769 148.6C414.769 149.4 414.902 150.867 415.169 153C415.435 155.133 415.569 156.733 415.569 157.8C415.569 159.933 415.235 161.667 414.569 163C413.902 164.2 412.702 165.067 410.969 165.6C399.902 165.6 386.102 165.667 369.569 165.8C353.169 165.933 337.569 166.067 322.769 166.2C307.969 166.2 293.235 166.267 278.569 166.4C276.702 164.4 272.302 160.733 265.369 155.4C258.435 149.933 254.969 144.333 254.969 138.6C245.502 135.933 235.635 129.8 225.369 120.2C215.235 110.6 205.569 101.4 196.369 92.6L193.169 86L193.769 7.2C193.769 5.33333 194.502 3.99999 195.969 3.19999C197.435 2.39999 199.435 1.86666 201.969 1.6C219.835 1.6 242.702 1.46666 270.569 1.19999C298.569 0.799994 315.169 0.599997 320.369 0.599997ZM200.169 3.99999C197.235 5.59999 196.169 7.59999 196.969 9.99999L241.569 86L246.969 89.2H315.969L321.569 91C322.102 92.0667 323.835 94.7333 326.769 99C329.835 103.133 331.369 106.4 331.369 108.8C331.369 110.4 330.702 112.067 329.369 113.8C322.035 113.8 310.502 114.267 294.769 115.2C279.169 116 268.502 116.4 262.769 116.4C264.635 121.467 267.435 127 271.169 133C275.035 138.867 278.769 144.467 282.369 149.8H407.769C408.169 149.4 408.702 148.867 409.369 148.2C410.035 147.533 410.369 146.667 410.369 145.6L355.369 60L349.369 56.8L277.969 56.2C274.635 53.9333 271.769 51.1333 269.369 47.8C266.969 44.3333 266.035 40.8 266.569 37.2C276.835 36 287.835 35.2 299.569 34.8C311.302 34.2667 324.169 34 338.169 34C335.902 29.2 333.369 24.5333 330.569 20C327.769 15.3333 324.169 9.86666 319.769 3.59999C306.302 3.59999 292.835 3.66666 279.369 3.79999C266.035 3.79999 252.769 3.86666 239.569 3.99999C226.369 3.99999 213.235 3.99999 200.169 3.99999ZM451.338 2.19999C455.338 1.79999 460.404 1.39999 466.538 0.999991C472.671 0.599989 478.804 0.399987 484.938 0.399987C491.738 0.399987 497.471 0.73332 502.138 1.39999C506.804 1.93332 510.538 2.99999 513.338 4.59999L582.338 104.6C583.138 107.933 583.804 111.533 584.338 115.4C585.004 119.267 585.338 122.667 585.338 125.6C585.338 130.667 584.671 135 583.338 138.6C582.138 142.067 579.938 144.6 576.738 146.2C563.671 147 550.671 147.8 537.738 148.6C538.804 149.667 539.538 151.067 539.938 152.8C540.338 154.4 540.538 156.067 540.538 157.8C540.538 159 540.471 160.2 540.338 161.4C540.338 162.6 540.338 163.8 540.338 165C536.071 165.533 530.204 165.933 522.738 166.2C515.404 166.467 509.004 166.6 503.538 166.6H481.338C473.338 159.133 463.538 150.533 451.938 140.8C440.471 130.933 429.271 121.333 418.338 112C407.404 102.533 397.671 93.5333 389.138 85L384.938 4.2L451.338 2.19999ZM452.138 3.19999L386.338 5.2L388.137 10.6L482.138 152.6C486.671 152.6 491.204 152.667 495.738 152.8C500.271 152.8 504.871 152.8 509.538 152.8C514.471 152.8 519.071 152.667 523.338 152.4C527.604 152.133 531.604 151.6 535.338 150.8C529.871 141.733 524.471 132.667 519.138 123.6L520.738 121.8C521.804 121.533 523.471 121.333 525.738 121.2C528.138 120.933 530.671 120.8 533.338 120.8C535.871 120.8 540.071 120.933 545.938 121.2C551.938 121.467 555.004 121.6 555.138 121.6C561.271 121.6 566.404 121.067 570.538 120C574.804 118.933 578.738 116.667 582.338 113.2L580.938 104.6C574.804 95 567.671 84.5333 559.538 73.2C551.538 61.7333 543.404 50.1333 535.138 38.4C526.871 26.6667 519.871 16.3333 514.138 7.39999C512.271 5.26666 508.938 3.73333 504.138 2.79999C499.471 1.73332 494.071 1.19999 487.937 1.19999C483.538 1.19999 476.604 1.53332 467.138 2.19999C457.804 2.86665 452.804 3.19999 452.138 3.19999ZM489.138 47.4L510.938 80.6C510.538 81.9333 509.738 82.9333 508.538 83.6C507.471 84.1333 506.138 84.4 504.538 84.4C503.204 84.4 501.671 84.3333 499.938 84.2C498.204 84.0667 497.204 84 496.938 84C495.871 84 495.071 84.0667 494.538 84.2C487.604 74.7333 481.604 66.3333 476.538 59C471.604 51.5333 467.404 44.2667 463.938 37.2C464.738 37.0667 465.938 37 467.538 37C469.138 36.8667 470.671 36.7333 472.138 36.6C475.071 36.6 477.738 36.8 480.138 37.2L489.138 47.4ZM720.125 37.4L721.525 88.6C719.792 89.4 717.858 89.9333 715.725 90.2C713.725 90.4667 711.525 90.6 709.125 90.6C706.592 90.6 704.058 90.5333 701.525 90.4C698.992 90.2667 696.525 90.1333 694.125 90C690.258 90 686.725 90.4667 683.525 91.4C686.192 97.5333 688.392 102.2 690.125 105.4C691.992 108.467 694.592 111.2 697.925 113.6C703.792 114.133 709.458 114.467 714.925 114.6C720.525 114.733 727.058 114.8 734.525 114.8H739.325H743.525H747.125H750.125H752.925H755.325C757.725 114.8 760.125 114.8 762.525 114.8C764.925 114.8 767.325 114.733 769.725 114.6H771.525L797.525 153.4C797.258 154.467 797.125 155.267 797.125 155.8C797.125 156.867 797.258 158.267 797.525 160C797.925 161.6 798.125 162.467 798.125 162.6C798.125 164.333 797.258 165.667 795.525 166.6C791.792 166.6 785.592 166.733 776.925 167C768.392 167.267 763.858 167.4 763.325 167.4C759.992 167.4 756.658 167.4 753.325 167.4C750.392 167 748.258 166.733 746.925 166.6L663.125 166L652.725 158.8L583.725 89.8L580.525 82.2C580.258 79.9333 580.058 77.3333 579.925 74.4C579.792 71.3333 579.725 68.3333 579.725 65.4C579.725 62.6 579.792 58.3333 579.925 52.6C580.058 46.8667 580.125 42.6 580.125 39.8C580.125 33.5333 579.992 29.1333 579.725 26.6C579.592 23.9333 579.125 20.2667 578.325 15.6C578.458 15.2 578.458 14.4 578.325 13.2C578.192 12 578.125 10.7333 578.125 9.39999C578.125 7.66666 578.525 6.39999 579.325 5.59999L585.525 2.59999C598.725 2.59999 611.258 2.46666 623.125 2.19999C634.992 1.93332 648.125 1.59999 662.525 1.19999C677.058 0.799994 687.792 0.599997 694.725 0.599997L720.125 37.4ZM586.325 2.79999C582.592 4.53333 580.725 7.59999 580.725 12C580.725 13.7333 582.992 18.4 587.525 26C592.058 33.4667 598.725 44.4667 607.525 59C616.325 73.4 624.392 86.9333 631.725 99.6C639.192 112.267 646.725 125.467 654.325 139.2L663.725 150.2C682.525 150.2 697.925 150.333 709.925 150.6C721.925 150.733 736.392 150.933 753.325 151.2C770.258 151.467 783.458 151.6 792.925 151.6C788.658 143.6 784.792 136.933 781.325 131.6C777.858 126.133 773.925 121.133 769.525 116.6H699.725L694.125 113.8L647.325 38.6L651.125 34.6L713.725 33.6C708.392 23.7333 704.592 17 702.325 13.4C700.058 9.8 696.725 6.2 692.325 2.59999L586.325 2.79999Z" fill="url(#paint0_linear_102_4)"/>
<defs>
<linearGradient id="paint0_linear_102_4" x1="53.2108" y1="50.7714" x2="673.3" y2="232.24" gradientUnits="userSpaceOnUse">
<stop stop-color="#8B60EC"/>
<stop offset="1" stop-color="#CE65DE"/>
</linearGradient>
</defs>
</svg>
